HIERARCHY
ROOT hip
{
	OFFSET 0.000000 0.000000 0.000000 
	CHANNELS 6 Xposition Yposition Zposition Xrotation Zrotation Yrotation
	JOINT abdomen
	{
		OFFSET 0.000000 3.402643 0.000000 
		CHANNELS 3 Xrotation Zrotation Yrotation
		JOINT chest
		{
			OFFSET 0.000000 8.438565 -0.680529 
			CHANNELS 3 Xrotation Zrotation Yrotation
			JOINT neck
			{
				OFFSET 0.000000 10.207942 -0.272212 
				CHANNELS 3 Xrotation Zrotation Yrotation
				JOINT head
				{
					OFFSET 0.000000 3.130431 0.000000 
					CHANNELS 3 Xrotation Zrotation Yrotation
					End Site
					{
						OFFSET 0.000000 3.130435 0.000000 
					}
				}
			}
			JOINT lCollar
			{
				OFFSET 3.470700 6.669187 -0.816635 
				CHANNELS 3 Yrotation Zrotation Xrotation
				JOINT lShldr
				{
					OFFSET 3.198488 0.000000 0.000000 
					CHANNELS 3 Zrotation Yrotation Xrotation
					JOINT lForeArm
					{
						OFFSET 10.139888 0.000000 0.000000 
						CHANNELS 3 Yrotation Zrotation Xrotation
						JOINT lHand
						{
							OFFSET 8.370511 0.000000 0.000000 
							CHANNELS 3 Zrotation Yrotation Xrotation
							End Site
							{
								OFFSET 4.083176 0.000000 0.000000 
							}
						}
					}
				}
			}
			JOINT rCollar
			{
				OFFSET -3.470700 6.669187 -0.816635 
				CHANNELS 3 Yrotation Zrotation Xrotation
				JOINT rShldr
				{
					OFFSET -3.198488 0.000000 0.000000 
					CHANNELS 3 Zrotation Yrotation Xrotation
					JOINT rForeArm
					{
						OFFSET -10.139888 0.000000 0.000000 
						CHANNELS 3 Yrotation Zrotation Xrotation
						JOINT rHand
						{
							OFFSET -8.370511 0.000000 0.000000 
							CHANNELS 3 Zrotation Yrotation Xrotation
							End Site
							{
								OFFSET -4.083176 0.000000 0.000000 
							}
						}
					}
				}
			}
		}
	}
	JOINT lThigh
	{
		OFFSET 5.308129 -1.633274 1.361059 
		CHANNELS 3 Xrotation Zrotation Yrotation
		JOINT lShin
		{
			OFFSET -2.041588 -20.007561 0.000000 
			CHANNELS 3 Xrotation Zrotation Yrotation
			JOINT lFoot
			{
				OFFSET 0.000000 -19.190928 -1.224953 
				CHANNELS 3 Xrotation Yrotation Zrotation
				End Site
				{
					OFFSET 0.000000 -2.449906 4.627600 
				}
			}
		}
	}
	JOINT rThigh
	{
		OFFSET -5.308129 -1.633274 1.361059 
		CHANNELS 3 Xrotation Zrotation Yrotation
		JOINT rShin
		{
			OFFSET 2.041588 -20.007561 0.000000 
			CHANNELS 3 Xrotation Zrotation Yrotation
			JOINT rFoot
			{
				OFFSET 0.000000 -19.190928 -1.224953 
				CHANNELS 3 Xrotation Yrotation Zrotation
				End Site
				{
					OFFSET 0.000000 -2.449906 4.627600 
				}
			}
		}
	}
}
MOTION
Frames: 11
Frame Time: 0.011111
-5.495812 54.518097 94.153351 -12.466058 3.569688 -142.963806 14.870104 -4.509611 -2.489519 -28.074434 3.461319 -0.270234 -12.688603 -7.084759 -5.144689 33.653320 22.961456 -9.774503 -8.555320 -1.799056 -0.578414 -66.579460 -16.890667 8.320519 -55.937424 8.809966 10.616384 8.524705 12.647240 -75.677139 11.262407 1.069142 -1.081854 67.908676 6.420758 22.710640 50.331196 -7.782977 8.297811 -8.534408 -12.637552 53.704937 9.670037 1.042620 -13.306272 4.295284 -6.013162 -1.313136 -29.891462 14.171823 5.113680 -33.910313 -2.454916 33.516891 24.571859 5.602391 4.127941 -63.052715 -4.504589 -17.221937 
-5.660694 54.510132 93.869049 -12.485405 3.986820 -143.531418 14.452655 -3.762900 -2.331221 -28.084179 3.762042 -0.322858 -12.938256 -7.605675 -4.803630 34.292095 22.786049 -9.221160 -8.555320 -1.799056 -0.578414 -67.424820 -16.970095 7.269420 -55.990364 8.817513 10.639510 8.524705 12.647240 -76.390022 11.262407 1.069142 -1.081854 67.089798 6.252516 23.587866 50.133419 -7.741398 8.217531 -8.534408 -12.637552 53.753765 8.653961 1.072351 -12.660231 6.619229 -6.016916 -1.630415 -30.028957 13.998761 5.115077 -33.968094 -2.288685 30.514799 24.731922 5.599085 4.170462 -58.326080 -8.682044 -17.530384 
-5.780125 54.544632 93.447052 -11.864599 4.037430 -143.143661 14.798247 -3.390149 -2.690143 -28.172377 4.254296 -0.458102 -12.710079 -7.832941 -4.774912 34.257847 22.805904 -9.243687 -8.555320 -1.799056 -0.578414 -68.034019 -16.964611 6.757115 -55.948189 8.812821 10.627701 8.524705 12.647240 -76.692757 11.262407 1.069142 -1.081854 66.563507 6.191212 24.161211 49.705597 -7.643888 8.049428 -8.534408 -12.637552 54.076031 8.846080 1.571273 -12.864195 8.311241 -5.997593 -1.890343 -30.338972 13.517445 5.012461 -32.518139 -1.963223 28.899923 24.744577 5.588013 4.159337 -56.021584 -10.731070 -17.529203 
-5.894579 54.551937 93.021416 -11.240380 4.193071 -143.076645 14.959126 -3.064922 -2.451037 -28.093983 4.041965 -0.404012 -12.445824 -7.505691 -4.965014 34.130527 22.813925 -9.593502 -8.555320 -1.799056 -0.578414 -67.911911 -16.886505 7.211227 -55.884483 8.802357 10.594781 8.524705 12.647240 -76.087288 11.262407 1.069142 -1.081854 66.916473 6.338527 23.729265 49.214886 -7.522441 7.846957 -8.534408 -12.637552 54.134621 8.895117 2.264455 -12.706724 9.688034 -6.007309 -2.064162 -30.800304 11.270103 4.199281 -31.323378 -1.360167 27.951111 24.822123 5.601931 4.159426 -53.403370 -14.319746 -18.364250 
-6.017990 54.522404 92.690323 -11.049297 4.651171 -143.924973 14.625208 -2.644228 -1.373177 -27.918037 3.212664 -0.143288 -12.379290 -6.856921 -5.225579 33.970253 22.669233 -9.996959 -8.555320 -1.799056 -0.578414 -67.334190 -16.877121 8.141684 -55.884483 8.802357 10.594781 8.524705 12.647240 -75.227913 11.262407 1.069142 -1.081854 67.844574 6.547622 22.204397 48.809330 -7.425382 7.682908 -8.534408 -12.637552 53.333847 8.127073 2.691957 -11.710256 11.233472 -5.976954 -2.279424 -30.384069 10.135549 3.548773 -31.110464 -0.685014 26.307364 24.914648 5.588900 4.175378 -48.379616 -19.468744 -18.016617 
-6.124484 54.532028 92.349281 -10.892260 4.914576 -144.296967 14.414529 -2.083958 -1.265076 -27.918184 2.977300 -0.163169 -12.084549 -6.817096 -5.151906 33.804306 22.534697 -9.886418 -8.555320 -1.799056 -0.578414 -67.647194 -16.737114 7.727357 -55.884483 8.802357 10.594781 8.524705 12.647240 -74.827530 11.262407 1.069142 -1.081854 67.965279 6.431744 21.581961 48.466114 -7.340153 7.548069 -8.534408 -12.637552 52.454941 7.622757 2.956799 -10.437790 12.799426 -5.957003 -2.526076 -29.047228 10.637026 3.318376 -30.691984 -0.303257 24.753235 25.005373 5.579792 4.220295 -44.863983 -21.920870 -16.884411 
-6.236948 54.574490 91.981377 -10.661882 5.009551 -144.416794 14.300014 -0.959910 -2.421365 -28.025354 3.778901 -0.622710 -11.852169 -8.092456 -4.328668 34.330013 22.315626 -8.585124 -8.555320 -1.799056 -0.578414 -69.603073 -16.376204 4.998469 -56.033619 8.828240 10.669082 8.524705 12.647240 -75.296280 11.262407 1.069142 -1.081854 66.212791 6.183797 23.913630 48.071663 -7.242186 7.396300 -8.534408 -12.637552 52.542828 7.356451 3.160407 -9.344056 14.460712 -5.928283 -2.760943 -27.702671 10.986400 3.039553 -29.998793 -0.039034 23.204334 25.178099 5.570377 4.214707 -41.815067 -24.041376 -15.835720 
-6.331828 54.613308 91.552750 -10.504672 5.031398 -144.247971 14.224693 -1.260904 -2.312785 -27.966660 3.791700 -0.560703 -11.913769 -7.810219 -4.567996 34.700825 22.500385 -8.987308 -8.555320 -1.799056 -0.578414 -69.481049 -16.238539 6.145866 -56.022842 8.825410 10.659248 8.524705 12.647240 -74.231819 11.262407 1.069142 -1.081854 66.652252 6.238059 22.607367 47.573780 -7.112885 7.199339 -8.534408 -12.637552 51.820171 6.791809 3.415307 -8.586462 16.418304 -5.890692 -3.002278 -27.121534 10.289240 2.569921 -29.221800 0.221040 22.805590 25.399923 5.563478 4.222834 -42.158508 -23.433020 -15.779043 
-6.421734 54.647148 91.181519 -10.642212 5.013188 -144.388351 13.933236 -1.495415 -2.393861 -27.986223 3.917948 -0.576991 -11.919591 -7.684300 -4.533017 35.088829 22.405355 -8.934463 -8.555320 -1.799056 -0.578414 -69.718491 -15.978649 6.889513 -56.075787 8.832850 10.682424 8.524705 12.647240 -72.571671 11.262407 1.069142 -1.081854 66.854385 6.406165 21.505404 46.910667 -6.933345 6.941398 -8.534408 -12.637552 50.736187 5.719072 3.386015 -7.672154 18.610050 -5.820831 -3.336413 -26.170567 10.138589 2.221243 -28.854687 0.282184 22.017559 25.589727 5.559740 4.268802 -41.991943 -22.146931 -15.048233 
-6.451259 54.672691 90.866684 -10.907947 5.039973 -144.420380 13.738848 -1.746678 -2.720263 -28.230982 4.146461 -0.672624 -11.878963 -7.659559 -4.434154 35.461311 22.315168 -8.765255 -8.555320 -1.799056 -0.578414 -70.018288 -15.867013 5.478324 -56.054070 8.827824 10.670999 8.524705 12.647240 -74.466202 11.262407 1.069142 -1.081854 66.879532 6.779035 20.970276 46.094639 -6.709044 6.633483 -8.534408 -12.637552 50.160015 4.332395 3.365825 -6.821568 20.916386 -5.753041 -3.640866 -24.834040 10.395981 1.937407 -28.794804 0.232883 21.215553 25.721470 5.549238 4.287653 -40.575844 -22.436079 -14.286819 
-6.535193 54.715485 90.520996 -11.172352 5.067242 -144.613815 13.350318 -1.994972 -2.766963 -28.270212 4.253759 -0.670656 -11.749698 -7.609989 -4.403088 35.627132 22.289362 -8.710956 -8.555320 -1.799056 -0.578414 -70.232117 -15.633229 6.366930 -56.022842 8.825410 10.659248 8.524705 12.647240 -72.679085 11.262407 1.069142 -1.081854 66.862625 6.815571 20.852905 45.621044 -6.578207 6.452835 -8.534408 -12.637552 49.954937 2.967489 3.357357 -5.981657 23.367489 -5.655416 -3.980615 -24.475214 10.389519 1.835838 -28.704523 0.299828 21.102272 25.870962 5.549752 4.311573 -39.288742 -23.190258 -13.820291 
